PathFileType	4	(X/Y/Z)	T1_P1_NoVision_NoMovement_0_0-649.trc
DataRate	CameraRate	NumFrames	NumMarkers	Units	OrigDataRate	OrigDataStartFrame	OrigNumFrames
60	60	4	27	m	60	405	649
Frame#	Time	RHip			RKnee			RAnkle			RBigToe			RSmallToe			RHeel			LHip			LKnee			LAnkle			LBigToe			LSmallToe			LHeel			Neck			Head			Nose			RShoulder			RElbow			RWrist			RThumb			RIndex			RPinky			LShoulder			LElbow			LWrist			LThumb			LIndex			LPinky		
		X1	Y1	Z1	X2	Y2	Z2	X3	Y3	Z3	X4	Y4	Z4	X5	Y5	Z5	X6	Y6	Z6	X7	Y7	Z7	X8	Y8	Z8	X9	Y9	Z9	X10	Y10	Z10	X11	Y11	Z11	X12	Y12	Z12	X13	Y13	Z13	X14	Y14	Z14	X15	Y15	Z15	X16	Y16	Z16	X17	Y17	Z17	X18	Y18	Z18	X19	Y19	Z19	X20	Y20	Z20	X21	Y21	Z21	X22	Y22	Z22	X23	Y23	Z23	X24	Y24	Z24	X25	Y25	Z25	X26	Y26	Z26	X27	Y27	Z27
406	6.766666666666667	-70.68805468713819	3829.503958098218	-525.4528599121361	296.21616936965904	3980.42230736143	-529.4478297113507	639.236593107669	4128.931597479901	-527.1439185478799	730.5576297331794	4021.575886250843	-512.573348906694	737.6122772864701	4074.9923405948284	-610.4424098115601	659.9445215162372	4172.095573290325	-517.3885196487043	-105.06821387395435	3910.4110463158936	-341.31497941770283	260.79135842237713	4026.7396019490784	-336.0539106109276	602.154275784976	4249.0079603973145	-357.663416810629	679.6740296315638	4144.991366109149	-246.3841294927762	655.4859138132715	4218.30991569655	-223.59863316725114	637.3770507961262	4288.2370163536625	-384.4264401485017	-622.879935559485	3676.926818274007	-450.63963799254583	-883.8012974899032	3482.9030450143564	-370.24004268449954	-695.3076158984019	3504.7620617066254	-317.90914852012105	-556.474083098749	3607.8934168048104	-562.9449977524099	-284.22308098746794	3706.2538682178656	-645.2737518261199	-28.698699827391586	3715.603075213924	-586.9638065659138	79.88161786682437	3775.0563932089735	-554.195544965361	103.0177899784036	3778.517004168756	-559.3738966329715	95.46474349960971	3789.555701222654	-591.1581268227088	-613.4857863363827	3808.530760927955	-339.9649478836366	-381.83534961416075	3964.092503147349	-289.66180084887367	-132.7225162188322	3950.6747753903433	-209.8381595255735	-14.625673360150774	3968.678683253443	-215.5249546870592	9.292607186871804	3980.496364598031	-202.38688023116276	-9.882690957322357	4003.315338662404	-195.9228802058703
407	6.783333333333333	-70.4568477507682	3823.9091829944564	-521.0451302958313	296.94630126754987	3980.90086368584	-530.7567871253115	638.7652379791042	4128.408667081476	-526.9497024293298	728.0371076683467	4017.9082681696646	-512.8028352997345	738.0264528579482	4078.1029884734908	-611.2531972592723	658.6159495780029	4167.065852022799	-516.3706835940476	-104.55636574004336	3910.781320601037	-341.45335589951475	260.76172340439194	4026.7355519772686	-336.0287214716823	600.919893609389	4243.650165742371	-356.5928076641475	679.4490748460315	4151.019714366309	-251.8653023914902	655.6988861063921	4221.708151837483	-224.18064068367346	635.6890900748342	4286.109814572513	-384.0445109178438	-623.5635873730621	3676.7730741325113	-450.6513408089978	-882.381995050318	3479.0332488355807	-366.9840946524597	-695.6634720857223	3507.815821420212	-317.11136214718755	-556.4966898401531	3607.9056021919077	-562.9328656561094	-284.24393192086393	3708.176324931318	-646.8960242171765	-27.279338096198327	3716.4206641423384	-587.7709845525607	80.04505459818047	3775.5139408627524	-554.4586940511649	103.53207294057188	3779.0008398866025	-559.5898081041252	96.23788732172225	3792.647436196253	-591.6984832303569	-613.5030420832747	3808.603485637808	-340.01073043946906	-381.6771519315281	3964.0843304182586	-289.5769335975791	-133.28341664596684	3950.1646645481933	-209.5183368215925	-16.58474045555695	3967.192438270903	-214.94183559120938	8.466734238050975	3981.4854675502497	-202.28974070270112	-10.940183243872557	4002.4812993417	-195.57970096106234
408	6.8	-70.65471761255102	3820.0562890928154	-516.5555614967087	297.88496049310305	3984.1191640372763	-534.204689214094	637.3433068354359	4126.890669132601	-526.401736468844	726.826492527636	4017.5332343495293	-513.4114160226474	738.0275589169465	4078.7301593638977	-611.3829656485802	658.6583510747073	4164.207232463108	-515.6921326430148	-104.45088210528255	3910.833653220626	-341.45917947287677	260.7078165035451	4026.634831541997	-335.95907449782874	599.4446081584982	4240.133999468664	-355.75543907426595	679.9851872000507	4156.0627779594215	-255.4093233033086	655.3528544164801	4222.327419144382	-224.33848052573524	633.9459493849308	4283.216041458922	-383.3426576207904	-623.8488204521518	3676.721327590035	-450.6674892601775	-880.423973289083	3477.3830604956365	-365.2608472845894	-694.8595659780277	3507.5785894106343	-316.5084207810613	-556.503707467229	3607.9098660116897	-562.9346504265433	-283.879459298798	3712.9699082946045	-650.858383003027	-26.54175275406074	3716.732543982646	-588.6181485001728	80.07836739694766	3775.121099678524	-554.1328239264066	104.35372123334149	3779.4951104248853	-559.8218460291031	96.00745649097868	3796.5871133451205	-592.7286362226665	-614.0990900683004	3812.5522018885727	-340.80252975395894	-381.142666756301	3964.254319842983	-289.49813900286665	-133.58086485882527	3949.720637551671	-209.15073338408882	-17.93071407854384	3966.160729238397	-214.48472368989087	7.552416010760016	3984.6344534657233	-202.4221943289436	-11.9685898497763	4001.6440976386375	-195.25971849986894
409	6.816666666666666	-70.87440609888132	3820.5049826509976	-514.8039486827649	299.0008846292531	3987.1723704421397	-537.3267554982417	635.4934365088075	4124.963633720502	-525.8226624675665	727.2653983425873	4018.6222696071227	-512.7682394517129	737.8871019525502	4078.3019378617373	-611.2282563573135	660.4119246628013	4166.522803260108	-516.0217154406237	-104.51386071646863	3910.751476247646	-341.4215806056469	260.65510445853755	4026.479761794348	-335.8747826790001	599.1824906720517	4242.109802175985	-355.998836987183	679.9169371081654	4156.399694449783	-255.010946248808	655.0999471467669	4222.195274473952	-224.3224057484656	633.8132219857007	4284.418528398674	-383.29401123096517	-623.4764298370964	3676.8156787204002	-450.67949174382534	-878.5746620251012	3477.4861304754595	-364.87928965519717	-692.9797185317022	3502.9604460127694	-315.55621014413333	-556.4906698841952	3607.9033395612933	-562.9451319279477	-282.79724768063534	3719.3424334326905	-656.0211147168161	-26.410588944147086	3716.66945605192	-589.0542970044036	79.88608100528097	3772.754402179306	-552.3259260019577	104.8259835285815	3779.588107097058	-559.8648679928039	95.09433006310071	3798.1109790048504	-593.3689162408476	-614.4366603104834	3814.8029082402163	-341.24679658191724	-380.19918540332765	3964.5249692159123	-289.40183749086776	-133.94800967790414	3949.250119686853	-208.85257607864773	-18.390885184020103	3965.8433253649305	-214.31069652541274	6.807893784627917	3986.6865830544343	-202.47300197341912	-12.752548599556027	4001.0234966042244	-195.0513861261381
